# xmcd
#
# Track frame offsets:
#	150
#	19354
#	41079
#	64393
#	85852
#	104729
#	123801
#	146446
#	162073
#	179180
#	200398
#	220578
#
# Disc length: 3205 seconds
#
# Revision: 6
# Processed by: cddbd v1.5.2PL0 Copyright (c) Steve Scherf et al.
# Submitted via: EasyCDDAExtractor 15.3.0.1
#
DISCID=af0c830c
DTITLE=Yolandita Monge - Lo Mejor De Yolandita
DYEAR=1999
DGENRE=Latin
TTITLE0=Quitame Ese Hombre Del Corazon
TTITLE1=Todo Por Dolor
TTITLE2=Sobrevivire
TTITLE3=Dime Cuando
TTITLE4=Ahora, Ahora
TTITLE5=El Amor
TTITLE6=A Pesar Del Tiempo
TTITLE7=Cierra Los Ojos Y Juntos Recordemos
TTITLE8=Te Extraño
TTITLE9=Este Amor Que Hay Que Callar
TTITLE10=Debil
TTITLE11=Tu
EXTD=
EXTT0=
EXTT1=
EXTT2=
EXTT3=
EXTT4=
EXTT5=
EXTT6=
EXTT7=
EXTT8=
EXTT9=
EXTT10=
EXTT11=
PLAYORDER=
